<?xml version="1.0" encoding="UTF-8" standalone="no"?><!DOCTYPE svg PUBLIC "-//W3C//DTD SVG 1.1//EN" "http://www.w3.org/Graphics/SVG/1.1/DTD/svg11.dtd"><svg width="100%" height="100%" viewBox="0 0 4 4" version="1.1" xmlns="http://www.w3.org/2000/svg" xmlns:xlink="http://www.w3.org/1999/xlink" xml:space="preserve" xmlns:serif="http://www.serif.com/" style="fill-rule:evenodd;clip-rule:evenodd;stroke-linejoin:round;stroke-miterlimit:2;"><ellipse cx="1.928" cy="1.934" rx="1.925" ry="1.921" style="fill:#ebebeb;"/><g><path d="M2.641,3.155l0.024,-0l0.01,-0l0.021,0l0.009,0l0.018,0l0.008,0l0.015,0.001l0.006,-0l0.013,0l0.006,0l0.01,0.001l0.005,0l0.008,0.001l0.004,0l0.007,0.001l0.003,0l0.006,0.001l0.002,0.001l0.008,0.003l0.003,0.002l0.005,0.003l0.002,0.003l0.003,0.005l0.002,0.003l0.004,0.01l0.002,0.007l0,0.003l0.001,0.007l-0,0.004l-0.001,0.007l-0.001,0.004l-0.002,0.007l-0.001,0.003l-0.003,0.006l-0.002,0.003l-0.004,0.006l-0.003,0.002l-0.005,0.004l-0.003,0.001l-0.003,0.002l-0.002,0l-0.005,0.001l-0.004,0.001l-0.007,0.001l-0.006,0l-0.006,0l-0.003,0.001l-0.007,-0l-0.004,-0l-0.008,0l-0.004,0l-0.01,0l-0.005,0.001l-0.011,-0l-0.006,-0l-0.013,-0l-0.007,-0l-0.015,-0l-0.008,-0l-0.016,0l-0.009,0l-0.029,0l-0.021,0l-0.011,0l-0.035,0l-0.031,0l-0.018,0l-0.009,-0l-0.016,-0l-0.007,-0l-0.014,-0l-0.006,-0l-0.012,-0l-0.005,-0l-0.01,-0.001l-0.005,0l-0.008,0l-0.004,-0l-0.006,-0l-0.003,-0.001l-0.006,0l-0.002,-0l-0.009,-0.001l-0.003,-0.001l-0.005,-0.001l-0.002,-0.001l-0.003,-0.001l-0.002,-0.001l-0.008,-0.007l-0.005,-0.006l-0.001,-0.003l-0.004,-0.007l-0.001,-0.004l-0.002,-0.008l-0,-0.004l-0.001,-0.007l0.001,-0.004l0.001,-0.008l0.001,-0.004l0.002,-0.007l0.002,-0.003l0.004,-0.006l0.003,-0.002l0.007,-0.006l0.004,-0.003l0.004,-0.001l0.006,-0.003l0.005,-0.001l0.005,-0l0.003,-0.001l0.006,-0l0.004,-0.001l0.007,-0l0.005,-0.001l0.009,0l0.005,-0l0.011,-0l0.007,-0.001l0.013,0l0.007,0l0.016,0l0.009,0l0.018,-0l0.01,-0l0.021,-0l0.048,-0m-2.002,-1.229l0.002,0.059l0.292,0.001l0.293,0.001l0.034,-0.015l0.038,-0.014l0.025,-0.009l0.013,-0.004l0.027,-0.007l0.014,-0.003l0.03,-0.007l0.016,-0.003l0.018,-0.004l0.011,-0.001l0.005,-0.001l0.02,-0.003l0.01,-0.001l0.011,-0l0.006,-0.001l0.013,-0l0.007,-0l0.014,-0l0.009,-0.001l0.018,0l0.01,0l0.027,0l0.016,0l0.007,0.001l0.013,-0l0.006,-0l0.012,0l0.005,0.001l0.019,0.001l0.01,0.002l0.018,0.003l0.011,0.002l0.048,0.01l0.029,0.007l0.014,0.004l0.026,0.008l0.013,0.005l0.024,0.01l0.011,0.005l0.022,0.011l0.011,0.006l0.021,0.013l0.01,0.007l0.02,0.015l0.01,0.008l0.02,0.018l0.009,0.009l0.029,0.03l0.018,0.021l0.008,0.011l0.015,0.023l0.007,0.012l0.014,0.024l0.006,0.013l0.012,0.026l0.005,0.013l0.01,0.028l0.004,0.015l0.008,0.029l0.003,0.016l0.006,0.032l0.003,0.017l0.004,0.037l0.001,0.013l0.001,0.007l0,0.015l0.001,0.009l-0,0.01l0,0.005l0,0.01l0,0.006l0.001,0.012l-0,0.006l-0,0.013l-0,0.007l-0,0.015l0,0.008l0,0.017l0,0.009l0,0.019l0,0.042l0,0.202l-0.032,0.057l-0.013,0.023l-0.009,0.014l-0.003,0.006l-0.004,0.006l-0.002,0.003l-0.003,0.005l-0.001,0.002l-0.002,0.004l-0.001,0.002l-0.002,0.002l-0.001,0.001l-0.004,0.006l-0.002,0.003l-0,0.002l-0.001,0.002l0,0.002l0.001,0.001l0.001,0.001l0.001,0.001l0.002,0.001l0.003,0.001l0.003,0l0.005,0.001l0.003,-0l0.007,-0l0.004,0l0.013,0l0.007,0l0.003,0l0.006,0l0.002,0l0.003,-0l0.001,-0l0.004,0.001l0.004,0.002l0.001,0.001l0.002,0.002l0,0.003l0.001,0.001l0.001,0.007l0.001,0.005l0.001,0.01l-0,0.006l0,0.012l0,0.006l0,0.012l0,0.006l-0,0.012l-0.001,0.004l-0.001,0.009l-0,0.004l-0.001,0.003l-0.001,0.001l-0,0.002l-0.001,0l-0.001,0.001l-0.002,-0l-0.004,0l-0.003,0l-0.008,0.001l-0.005,0l-0.011,0l-0.007,0.001l-0.015,-0l-0.009,0l-0.019,0l-0.011,0l-0.023,0.001l-0.013,-0l-0.014,-0l-0.007,-0l-0.015,0l-0.007,0l-0.016,0l-0.009,0l-0.017,0l-0.009,0l-0.018,0l-0.01,0.001l-0.02,-0l-0.01,-0l-0.021,-0l-0.011,-0l-0.022,-0l-0.012,-0l-0.024,-0l-0.012,-0l-0.026,-0l-0.013,-0l-0.026,-0l-0.014,0l-0.028,0l-0.015,0l-0.03,0l-0.046,0l-0.016,0l-0.05,0l-0.034,0l-0.319,0l-0.038,0l-0.053,0l-0.017,0l-0.049,0l-0.032,0l-0.014,0l-0.029,0l-0.014,-0l-0.027,-0l-0.013,-0l-0.025,-0l-0.012,-0l-0.023,-0l-0.011,-0l-0.022,-0l-0.01,-0l-0.019,-0l-0.009,-0l-0.019,-0.001l-0.008,0l-0.016,0l-0.008,0l-0.015,0l-0.007,0l-0.013,0l-0.007,-0l-0.012,-0l-0.005,-0l-0.011,-0l-0.005,-0l-0.01,-0.001l-0.004,0l-0.016,-0l-0.007,-0l-0.012,-0.001l-0.005,0l-0.008,-0l-0.003,-0.001l-0.006,-0l-0.002,-0l-0.003,-0.001l-0.001,-0l-0.001,-0.001l-0,-0l-0,-0.003l-0.001,-0.004l0,-0.003l0,-0.007l0,-0.005l-0,-0.009l-0,-0.005l-0,-0.012l-0,-0.007l-0.001,-0.014l0,-0.008l0,-0.016l0,-0.008l0,-0.019l0,-0.009l-0,-0.02l-0,-0.011l-0,-0.021l-0,-0.012l-0,-0.023l-0,-0.012l-0,-0.024l-0.001,-0.013l0,-0.052l0,-0.028l0,-0.055l0,-0.452l-0.027,0l-0.014,0l-0.008,0l-0.002,-0.001l-0.006,-0.002l-0.002,-0.002l-0.003,-0.004l-0.002,-0.004l-0.001,-0.004l-0,-0.002l-0.001,-0.006l-0,-0.003l-0.001,-0.006l0,-0.004l-0,-0.008l-0,-0.004l-0,-0.01l-0,-0.005l-0,-0.012l-0,-0.006l-0,-0.013l0,-0.008l0,-0.015l0,-0.008l0.001,-0.117l0.064,-0.004l0.004,-0.115l0.104,-0.002m2.128,1.113l0.051,-0l0.009,-0l0.018,-0l0.008,-0l0.017,-0l0.008,-0l0.015,-0l0.008,-0l0.014,0l0.006,0l0.013,0l0.006,0l0.023,0.001l0.01,-0l0.019,0l0.008,0l0.015,0.001l0.006,0l0.012,0.001l0.005,0l0.009,0.001l0.003,0.001l0.007,0.001l0.002,0.001l0.005,0.001l0.002,0.001l0.006,0.004l0.002,0.002l0.003,0.005l0.002,0.003l0.004,0.009l0.002,0.007l0,0.004l0.001,0.007l-0.001,0.004l-0.001,0.008l-0.001,0.003l-0.003,0.008l-0.001,0.003l-0.004,0.007l-0.002,0.003l-0.005,0.006l-0.003,0.002l-0.006,0.005l-0.003,0.002l-0.002,-0l-0.002,0l-0.004,0.001l-0.003,-0l-0.007,0l-0.005,0.001l-0.009,-0l-0.006,0l-0.012,0l-0.006,0.001l-0.014,-0l-0.008,0l-0.015,0l-0.009,0.001l-0.017,-0l-0.01,-0l-0.018,0l-0.01,0l-0.02,0l-0.011,0.001l-0.043,-0l-0.023,0l-0.046,0l-0.024,0l-0.048,0l-0.025,0l-0.048,0l-0.024,0l-0.047,0l-0.022,0l-0.045,-0l-0.021,-0l-0.02,-0.001l-0.01,0l-0.019,0l-0.009,-0l-0.018,-0l-0.008,-0l-0.016,-0.001l-0.007,0l-0.015,-0l-0.006,-0l-0.012,-0.001l-0.006,0l-0.01,-0l-0.004,-0l-0.007,-0.001l-0.003,0l-0.005,-0l-0.002,-0.001l-0.002,-0l-0,-0l-0.002,-0.007l-0,-0.006l-0.001,-0.004l-0,-0.008l-0.001,-0.005l-0,-0.009l-0,-0.005l-0.001,-0.019l-0,-0.008l0,-0.008l0,-0.003l0.001,-0.005l-0,-0.002l0.002,-0.012l0.485,-0m-1.351,-0.969l-0.002,0.052l-0,0.013l-0.001,0.008l0,0.003l-0,0.007l-0,0.003l-0.001,0.005l-0,0.002l-0.002,0.007l-0,0.002l-0.002,0.004l-0.002,0.001l-0.002,0l-0.003,0.001l-0.001,0l-0.009,0.001l-0.006,0.001l-0.012,0l-0.007,0l-0.014,0.001l-0.008,-0l-0.056,-0l-0,0.052l-0.001,0.023l-0,0.013l-0.001,0.005l-0.001,0.008l-0,0.003l-0.002,0.005l-0.001,0l-0.005,0.003l-0.006,0.001l-0.004,0l-0.01,0.001l-0.006,0l-0.014,0.001l-0.055,-0l-0.003,0.112l-0.108,0.002l0.002,0.334l0.106,0.004l0.004,0.123l0.098,0.004l0.001,0.075l0.001,0.029l0,0.017l0.001,0.008l-0,0.007l0,0.003l0,0.005l0,0.002l0.001,0.004l-0,0.002l0,0.002l0,0l0.002,0.001l0.002,0.001l0.002,0l0.002,0l0.003,0.001l0.003,-0l0.004,0l0.003,0l0.007,0.001l0.003,-0l0.008,-0l0.004,0l0.01,0l0.005,0l0.011,0l0.006,0.001l0.012,-0l0.007,-0l0.015,-0l0.008,-0l0.016,-0l0.038,-0l0.021,-0l0.011,-0l0.023,-0l0.012,-0l0.026,-0l0.013,-0l0.276,-0.002l0.002,-0.159l0.104,-0.002l0.001,-0.062l0.001,-0.063l0.054,-0.001l0.054,-0.001l0.002,-0.33l-0.048,0l-0.022,0l-0.012,0l-0.005,-0l-0.008,-0.002l-0.004,-0.001l-0.005,-0.002l-0.002,-0.002l-0.004,-0.005l-0.001,-0.003l-0.002,-0.007l-0.001,-0.005l-0,-0.01l-0,-0.007l-0,-0.013l-0,-0.061l-0.048,-0l-0.022,-0.001l-0.011,-0l-0.005,-0.001l-0.008,-0.001l-0.002,-0l-0.005,-0.002l-0.001,-0.001l-0.002,-0.005l-0.001,-0.007l-0,-0.004l-0.001,-0.011l-0,-0.007l-0.001,-0.014l0,-0.061l-0.116,-0.002l-0.003,-0.109m1.14,0.621l0.033,0l0.015,0l0.03,0l0.013,0l0.027,0.001l0.012,-0l0.023,-0l0.009,-0l0.01,0l0.004,0l0.008,0l0.004,0l0.007,0l0.003,0.001l0.005,-0l0.003,-0l0.004,-0l0.001,0l0.003,0l0,0l0.01,0.003l0.006,0.003l0.002,0.002l0.005,0.004l0.003,0.003l0.004,0.005l0.002,0.003l0.003,0.006l0.001,0.004l0.002,0.006l0.001,0.004l0,0.007l0,0.003l-0,0.007l-0.001,0.004l-0.003,0.006l-0.002,0.004l-0.002,0.002l-0.006,0.01l-0.019,0.018l-0.693,-0l0.002,0.066l0.344,0.002l0.07,0l0.044,0.001l0.021,-0l0.04,0l0.019,0l0.018,0.001l0.009,-0l0.017,0l0.008,0l0.015,0l0.007,0.001l0.014,-0l0.007,0l0.012,0l0.006,0l0.01,0.001l0.005,-0l0.009,0l0.003,0l0.007,0.001l0.002,-0l0.005,-0l0.001,0l0.003,0l0,0l0.008,0.007l0.004,0.007l0.002,0.004l0.004,0.008l0.001,0.005l0.001,0.01l0,0.005l-0.001,0.01l-0.001,0.005l-0.001,0.002l-0.003,0.005l-0.002,0.003l-0.005,0.006l-0.003,0.003l-0.017,0.017l-0.391,-0l-0.079,-0.001l-0.049,0l-0.024,0l-0.023,0l-0.011,0l-0.022,0l-0.01,0l-0.021,-0l-0.01,-0l-0.019,-0l-0.009,-0l-0.017,-0.001l-0.008,0l-0.016,0l-0.007,0l-0.013,0l-0.007,-0l-0.011,-0l-0.005,-0l-0.01,-0.001l-0.004,0l-0.007,0l-0.002,0l-0.005,-0l-0.002,-0l-0.002,-0l0,-0.001l-0,-0.003l-0,-0.005l-0.001,-0.003l0,-0.008l-0,-0.005l-0,-0.01l-0.001,-0.007l0,-0.012l-0,-0.007l-0,-0.015l-0,-0.008l-0.001,-0.016l0,-0.009l-0,-0.017l-0,-0.009l-0.002,-0.132l0.147,-0.003l0.036,-0.001l0.026,0l0.015,-0l0.03,-0l0.015,-0.001l0.033,0l0.016,0l0.069,-0l0.035,-0.001l0.071,0l0.034,0l0.034,0m-1.259,-0.397l0.007,0l0.015,0.001l0.006,0.001l0.013,0.001l0.006,0.001l0.011,0.002l0.005,0.001l0.043,0.015l0.027,0.013l0.012,0.008l0.024,0.015l0.011,0.009l0.021,0.019l0.009,0.011l0.018,0.021l0.008,0.012l0.014,0.025l0.006,0.013l0.011,0.026l0.004,0.015l0.007,0.028l0.002,0.016l0.002,0.029l0,0.019l-0,0.01l-0.002,0.019l-0.002,0.009l-0.004,0.019l-0.003,0.009l-0.005,0.018l-0.004,0.009l-0.007,0.017l-0.005,0.009l-0.009,0.016l-0.005,0.008l-0.011,0.016l-0.006,0.008l-0.012,0.015l-0.006,0.006l-0.014,0.014l-0.007,0.007l-0.015,0.012l-0.008,0.006l-0.015,0.011l-0.009,0.005l-0.017,0.009l-0.009,0.005l-0.018,0.007l-0.009,0.004l-0.019,0.006l-0.01,0.002l-0.019,0.005l-0.01,0.001l-0.015,0.002l-0.008,0.001l-0.014,0.001l-0.007,-0.001l-0.014,-0l-0.007,-0.001l-0.014,-0.002l-0.007,-0.001l-0.015,-0.003l-0.007,-0.002l-0.014,-0.005l-0.008,-0.002l-0.015,-0.006l-0.007,-0.004l-0.016,-0.007l-0.009,-0.005l-0.021,-0.012l-0.014,-0.01l-0.007,-0.005l-0.013,-0.012l-0.006,-0.006l-0.013,-0.012l-0.005,-0.007l-0.012,-0.014l-0.005,-0.007l-0.01,-0.014l-0.005,-0.008l-0.009,-0.015l-0.004,-0.008l-0.007,-0.016l-0.003,-0.008l-0.009,-0.027l-0.004,-0.019l-0.002,-0.01l-0.004,-0.02l-0.001,-0.01l-0.001,-0.018l-0,-0.007l0.001,-0.022l0.002,-0.016l0.002,-0.008l0.004,-0.016l0.002,-0.008l0.005,-0.016l0.003,-0.009l0.007,-0.016l0.004,-0.008l0.007,-0.015l0.004,-0.008l0.009,-0.015l0.004,-0.006l0.01,-0.014l0.005,-0.006l0.014,-0.015l0.01,-0.01l0.006,-0.005l0.011,-0.009l0.006,-0.005l0.012,-0.008l0.006,-0.004l0.013,-0.008l0.007,-0.004l0.013,-0.007l0.007,-0.003l0.014,-0.005l0.007,-0.003l0.014,-0.005l0.007,-0.002l0.016,-0.003l0.013,-0.002l0.007,-0l0.028,-0.002l0.015,-0m0.814,0.098l0.001,0.114l0.351,0.002l0.035,0l0.021,0l0.011,0l0.02,0l0.01,0l0.019,0.001l0.009,-0l0.017,-0l0.009,-0l0.016,-0l0.008,-0l0.015,0l0.007,0l0.014,0l0.006,0l0.025,0.001l0.01,-0l0.021,0l0.009,0l0.016,0.001l0.007,0l0.013,0.001l0.006,0l0.01,0.001l0.004,0.001l0.008,0.001l0.003,0l0.005,0.001l0.002,0.001l0.004,0.002l0.002,0l0.004,0.004l0.001,0.003l0.003,0.005l0.001,0.003l0.004,0.01l0.001,0.007l0.001,0.003l-0,0.008l-0.001,0.003l-0.001,0.008l-0,0.004l-0.002,0.007l-0.002,0.003l-0.003,0.006l-0.001,0.003l-0.004,0.005l-0.002,0.002l-0.005,0.003l-0.002,0.001l-0.001,0l-0.002,0.001l-0.002,-0l-0.003,-0l-0.004,0l-0.004,0l-0.006,0l-0.004,0.001l-0.008,-0l-0.004,-0l-0.01,0l-0.005,0l-0.011,0l-0.006,0l-0.012,0.001l-0.007,-0l-0.027,0l-0.015,0l-0.031,0l-0.017,0.001l-0.034,-0l-0.018,-0l-0.036,0l-0.019,0l-0.075,0.001l-0.038,-0l-0.093,-0l-0.017,-0l-0.034,-0.001l-0.017,0l-0.031,0l-0.014,0l-0.014,0l-0.007,-0l-0.013,-0l-0.006,-0l-0.012,-0l-0.005,-0.001l-0.011,0l-0.004,0l-0.13,-0.002l-0.002,-0.329l0.102,-0m0.832,0.094l0,0.031l0,0.018l0,0.007l0,0.015l-0,0.007l-0,0.011l-0.001,0.005l-0,0.01l-0,0.003l-0.001,0.007l-0,0.003l-0.001,0.004l-0,0.002l-0.001,0.002l-0.001,0.001l-0.002,0.001l-0.003,0l-0.007,0.001l-0.004,0.001l-0.009,0.001l-0.005,0l-0.011,0.001l-0.006,-0l-0.011,-0l-0.005,-0l-0.01,-0l-0.004,-0.001l-0.009,-0l-0.002,-0.001l-0.005,-0.001l-0.001,-0l-0,-0.003l-0.001,-0.005l0,-0.003l-0,-0.007l-0,-0.005l-0,-0.009l-0.001,-0.006l0,-0.012l0,-0.007l-0,-0.013l-0,-0.008l-0,-0.015l-0,-0.008l-0,-0.016l-0,-0.131l0.101,0m-0.938,0.026l-0.101,-0l-0.003,-0.029l-0,-0.008l-0,-0.006l-0.001,-0.004l0,-0.009l-0,-0.005l-0,-0.01l-0,-0.005l-0.001,-0.022l-0,-0.013l-0,-0.025l-0,-0.012l-0,-0.09l0.106,-0m1.274,-0.744l0.1,0.003l-0,0.297l-0.1,0.002l0,0.31l-0.011,0.004l-0.007,0.002l-0.008,0.001l-0.005,0l-0.01,0.001l-0.005,0l-0.012,0.001l-0.047,-0l-0.001,0.051l-0,0.021l-0.001,0.012l-0,0.005l-0.001,0.009l0,0.003l-0,0.002l-0,0.001l-0.001,0.001l0,0.001l-0.001,0l-0.002,0l-0.002,0.001l-0.007,0l-0.005,0.001l-0.011,0l-0.006,0.001l-0.014,0l-0.007,0l-0.02,0.001l-0.012,0.001l-0.005,0l-0.009,0.001l-0.003,0l-0.002,0.001l-0.001,0l-0.001,0l-0,0.001l-0,0.002l-0.001,0.004l0,0.003l0,0.007l0,0.004l-0,0.008l-0,0.005l-0.001,0.011l0,0.006l-0,0.012l-0,0.006l-0.001,0.028l-0,0.015l-0.003,0.108l-0.104,0.002l-0,-0.124l0,-0.01l0,-0.005l0,-0.018l0,-0.007l0,-0.014l0.001,-0.005l-0,-0.011l0,-0.004l0.001,-0.007l0,-0.003l0.001,-0.005l0,-0.002l0.001,-0.004l0.001,-0.001l0.001,-0.002l0.001,-0.001l0.005,-0.003l0.005,-0.001l0.004,-0.001l0.005,-0l0.002,-0.001l0.005,0l0.003,0l0.007,-0l0.004,-0l0.008,-0l0.05,-0l0.003,-0.035l0.002,-0.031l0,-0.01l0,-0.004l0,-0.008l0,-0.003l0,-0.02l0.111,0l-0,-0.314l0.106,-0l0,-0.301l-0.104,-0.003l-0.001,-0.111l-0.001,-0.112l-0.057,0l-0.024,0l-0.013,0l-0.005,-0l-0.009,-0.001l-0.004,-0.001l-0.006,-0.003l-0.002,-0.001l-0.004,-0.004l-0.001,-0.003l-0.001,-0.007l-0.001,-0.004l-0,-0.009l-0,-0.006l0,-0.012l0,-0.007l0.002,-0.046l0.231,-0.002m-1.381,1.015l0,0.014l0,0.007l0,0.004l-0,0.006l-0,0.003l-0,0.006l-0.001,0.002l-0,0.007l-0.001,0.003l-0.001,0.003l-0.001,0.001l-0.002,0.001l-0.001,-0l-0.002,0l-0.001,0l-0.007,0.001l-0.005,0.001l-0.01,0l-0.006,0l-0.013,0.001l-0.006,-0l-0.012,-0l-0.008,-0.001l-0.003,0l-0.011,-0l-0.004,-0.001l-0.007,-0.001l-0.003,-0l-0.003,-0.002l-0.001,-0.001l-0.002,-0.006l-0.001,-0.007l-0.001,-0.004l-0,-0.011l-0,-0.006l-0,-0.014l-0,-0.008l0.001,-0.051l0.111,0m-1.256,-0.222l0.021,0.001l0.014,0l0.006,0l0.011,0.001l0.006,-0l0.01,0l0.005,0l0.018,0.001l0.008,0.001l0.014,0.001l0.006,0.001l0.012,0.001l0.005,0.001l0.009,0.002l0.004,0.002l0.016,0.005l0.008,0.004l0.008,0.006l0.007,0.005l0.003,0.003l0.012,0.012l0.005,0.007l0.005,0.007l0.002,0.003l0.004,0.007l0.002,0.003l0.002,0.006l0.001,0.003l0.002,0.005l-0,0.003l0.001,0.007l0.002,0.005l0.002,0.001l0.002,0.001l0.002,0.001l0.002,-0l0.005,0l0.003,0l0.006,0.001l0.004,-0l0.009,0l0.005,0l0.011,0.001l0.006,-0l0.013,0l0.007,0l0.016,0l0.009,0l0.018,0.001l0.01,-0l0.021,-0l0.012,-0l0.024,0l0.013,0l0.027,0l0.015,0l0.03,0l0.016,0l0.034,0.001l0.018,-0l0.036,-0l0.02,-0l0.514,-0l-0,0.106l-1.393,-0l-0,-0.106l0.108,-0.003l0.001,-0.043l0.001,-0.014l-0,-0.008l0,-0.003l0.001,-0.006l-0,-0.002l0.001,-0.004l-0,-0.002l0.002,-0.006l0.002,-0.002l0.005,-0.005l0.003,-0.002l0.013,-0.012m0.992,-0.113l0.008,0l0.018,0l0.01,0l0.094,0.002l0.001,0.049l0.001,0.049l-0.041,0.003l-0.036,0.002l-0.017,0l-0.018,0.001l-0.008,-0l-0.016,-0l-0.008,-0l-0.014,-0.001l-0.007,0l-0.012,-0.001l-0.004,-0l-0.009,-0.001l-0.003,-0.001l-0.003,-0l-0.001,-0l-0.001,-0.001l-0.001,-0l-0.002,-0.007l-0.002,-0.006l-0,-0.004l-0.001,-0.01l0,-0.005l-0,-0.01l-0,-0.006l0,-0.01l0.001,-0.005l0,-0.01l0.001,-0.005l0.001,-0.008l0.001,-0.003l0.002,-0.005l0.001,-0.001l0.003,-0.002l0.002,-0.001l0.002,-0l0.003,-0.001l0.003,-0.001l0.006,-0l0.003,-0l0.008,-0.001l0.005,0l0.01,0l0.007,0m0.051,-0.257l-0.001,0.152l-0.05,0.002l-0.013,-0l-0.008,-0l-0.003,-0l-0.006,-0l-0.003,-0l-0.005,-0l-0.002,-0.001l-0.007,-0l-0.002,-0.001l-0.003,-0.002l-0.001,-0.001l0,-0.004l-0,-0.005l-0,-0.004l-0,-0.009l-0,-0.006l-0.001,-0.012l0,-0.007l0,-0.014l0,-0.008l0,-0.025l0,-0.018l0,-0.01l0,-0.02l0.001,-0.01l0.001,-0.146l0.052,-0.001l0.052,-0.001m0.224,-0.354l-0.001,0.054l-0.057,0.002l-0.056,0.001l-0.001,0.147l-0.001,0.148l-0.052,0.001l-0.052,0.001l0.001,-0.148l0.001,-0.147l0.104,-0.003l0,-0.11l0.115,0m1.243,-0.012l0.114,0.001l0.001,0.044l0,0.02l-0,0.01l-0,0.005l-0.001,0.007l-0.001,0.003l-0.001,0.004l-0.001,0.001l-0.001,0.001l-0.002,0.001l-0.005,0.001l-0.003,-0l-0.007,0.001l-0.004,0l-0.009,0.001l-0.005,-0l-0.01,0l-0.006,0.001l-0.012,0l-0.006,0l-0.026,0.001l-0.013,-0l-0.027,-0l-0.012,-0.001l-0.012,0l-0.006,0l-0.012,-0l-0.005,-0.001l-0.01,-0l-0.004,-0l-0.008,-0.001l-0.003,-0l-0.006,-0.001l-0.002,-0l-0.003,-0.001l-0,-0.001l-0.003,-0.005l-0.001,-0.006l-0,-0.004l-0.001,-0.01l-0,-0.006l-0,-0.012l-0,-0.054m-0.901,-0.051l-0,0.021l-0,0.012l-0.001,0.005l-0,0.01l-0.001,0.003l0,0.003l-0,0.001l-0,0.001l-0,0l-0.002,0.001l-0.001,0l-0.004,0l-0.003,0.001l-0.007,0l-0.004,0l-0.009,0.001l-0.005,-0l-0.011,0l-0.006,0l-0.012,0l-0.007,0.001l-0.029,-0l-0.127,-0l0.002,-0.113l0.228,0m0.841,-0.009l0.056,0.001l0.002,0.048l-0,0.021l-0,0.012l-0.001,0.005l-0,0.008l-0.001,0.002l-0.001,0.005l-0.001,0.001l-0.003,0.002l-0.002,0.001l-0.006,0.001l-0.004,0.001l-0.004,0l-0.003,0l-0.006,0.001l-0.003,-0l-0.007,-0l-0.004,-0l-0.008,0l-0.005,0l-0.019,-0l-0.012,-0.001l-0.005,0l-0.008,-0l-0.003,-0.001l-0.003,-0l-0.001,-0l-0.001,-0.001l-0,0l-0.001,-0.001l-0,-0.003l-0,-0.001l-0.001,-0.007l-0,-0.005l-0.001,-0.011l0,-0.007l-0,-0.013l-0,-0.06m-0.394,-0.109l0.387,0.001l0,0.102l-0.775,0.002l0,-0.106l0.388,0.001Z" style="fill:#050505;fill-rule:nonzero;"/><path d="M2.281,2.907l0.007,0l0.013,0l0.007,0l0.016,0l0.008,0l0.017,0.001l0.009,-0l0.019,-0l0.01,-0l0.021,0l0.01,0l0.022,0l0.011,0l0.023,0l0.024,0l0.049,0l0.079,0.001l-0.056,-0l-0.034,-0l-0.016,-0l-0.031,-0.001l-0.014,0l-0.028,0l-0.013,0l-0.025,0l-0.011,0l-0.022,0l-0.01,0l-0.02,-0l-0.008,-0l-0.017,-0l-0.007,-0l-0.015,-0.001l-0.006,0l-0.012,-0l-0.002,-0m0.779,-0.219l0,0.002l0,-0.002m0,-0.003l0,0.001l0,-0.001m-0,-0.007l-0,0l-0,-0m-0.001,-0.004l0,0.001l0,-0.001m-0.003,-0.009l0,0l-0,-0m-0.003,-0.006l0,0.001l-0,-0.002m-0.002,-0.002l0.001,0.002l-0.001,-0.003m-0.006,-0.007l0.002,0.002l0.002,0.003l-0.002,-0.003l-0.003,-0.003m0.016,-0.144l-0,0.004l-0.001,0.008l-0.001,0.003l-0.002,0.007l-0,0.001l0.002,-0.007l0,-0.004l0.001,-0.008l0.001,-0.003l-0,-0.006m0.106,-0.185l-0,0.03l0,0.018l-0,0.008l-0,0.014l-0,0.007l-0,0.012l-0.001,0.005l0,0.01l-0,0.004l-0.001,0.007l0,0.002l-0,0.005l-0.001,0.002l-0.001,0.002l0,0.001l-0.001,0.001l-0.001,0l-0.003,0.001l-0.001,0l-0.008,0.002l-0.005,0l-0.01,0.001l-0.006,0.001l-0.012,-0l-0.006,0l-0.013,-0l-0.005,-0l0.003,-0l0.005,-0l0.011,-0l0.006,-0l0.011,-0.001l0.005,-0l0.009,-0.001l0.004,-0.001l0.007,-0.001l0.003,-0l0.002,-0.001l0.001,-0.001l0.001,-0.002l0,-0.002l0.001,-0.004l0,-0.003l0.001,-0.007l-0,-0.003l0,-0.01l0.001,-0.005l-0,-0.011l0,-0.007l0,-0.015l0,-0.007l0,-0.018l0,-0.031l0,-0.12l-0.101,0l-0,0.131l-0,0.016l-0,0.008l-0,0.015l-0,0.008l0,0.013l0,0.007l0,0.012l0.001,0.006l-0,0.009l-0,0.005l0,0.007l0,0.003l0.001,0.005l0,0.003l0,-0l0,-0l-0.002,-0.001l-0.001,-0l-0.002,-0.001l0,-0.001l-0,-0.003l-0,-0.005l-0,-0.003l-0.001,-0.008l0,-0.004l0,-0.01l0,-0.006l0,-0.012l0,-0.028l0,-0.03l0,-0.017l0.001,-0.121l0.107,-0m-0.826,-0.243l-0.002,0.001l-0,0.002l-0.002,0.003l-0,0.002l-0.001,0.004l-0,0.003l-0.001,0.006l0,0.006l0,0.003l-0,0.008l-0,0.005l-0,0.009l-0,0.006l-0,0.012l-0,0.006l-0.001,0.014l0,0.007l0,0.015l0,0.008l0,0.016l0,0.009l0,0.035l0,0.019l0,0.039l0,0.02l0.001,0.083l0,0.041l0.001,0.114l0.138,-0.002l-0.001,-0.079l-0.001,-0.033l-0.001,-0.021l-0,-0.01l-0.001,-0.009l0,-0.004l-0,-0.009l-0.001,-0.003l-0,-0.007l-0,-0.003l-0.001,-0.006l-0,-0.001l-0.006,-0.034l-0.005,-0.024l-0.003,-0.012l-0.007,-0.025l-0.004,-0.012l-0.008,-0.025l-0.005,-0.013l-0.009,-0.025l-0.005,-0.012l-0.01,-0.024l-0.005,-0.011l-0.011,-0.023l-0.006,-0.011l-0.011,-0.02l-0.006,-0.01l-0.007,-0.011l-0.004,-0.006l-0.002,-0.002l-0.004,-0.004l-0.001,-0.002l-0.003,-0.002l-0.002,-0.001l-0.002,-0m-0.222,0.033l-0,0.09l-0,0.012l-0,0.025l0,0.013l0.001,0.022l-0,0.005l-0,0.01l0,0.005l0,0.009l0.001,0.004l-0,0.006l0,0.008l0.003,0.029l0.101,-0l-0,-0.238m-0.193,-0.001l-0,0m-0.011,-0.001l-0.002,-0l-0.002,-0.001m-0.004,-0l0.001,-0l-0.003,-0.001l-0.001,-0.001l-0,0m-0.006,-0.22l0,0.106l0.113,0.002l0.002,0.112l0.11,0l0,-0.103l-0,-0.041l-0,-0.013l-0,-0.005l-0.001,-0.011l0,-0.005l0,-0.01l-0,-0.004l-0,-0.008l-0,-0.003l-0.001,-0.005l0,-0.002l-0,-0.003l-0,-0.001l-0.002,-0.002l-0.002,-0.001l-0.001,-0l-0.004,-0.001l-0.003,-0l-0.006,-0.001l-0.003,-0l-0.009,-0.001l-0.006,0l-0.012,-0l-0.007,-0l-0.016,-0l-0.01,-0l-0.01,-0l-0.016,-0m1.162,0.132l-0,0.01l-0.002,0.031l-0,0l0.002,-0.031l0,-0.01l0,-0.004l0,-0.008l0,0.008m-2.234,-0.207l0.009,0.009l0.003,0.004l-0.008,-0.009l-0.003,-0.003l-0.003,-0.002m-0.02,-0.012l0.008,0.004l0.002,0.001l-0.002,-0.002l-0.008,-0.004m-0.282,-0.019l-0.009,0.008l0.009,-0.008m0.157,0.003l0.012,0.001l0.006,-0l0.01,0l0.005,0l0.018,0.001l0.008,0.001l0.014,0.001l0.005,0l-0.005,-0l-0.014,-0.001l-0.008,-0.001l-0.018,-0.001l-0.005,0l-0.01,-0l-0.006,-0l-0.011,-0.001l-0.004,0m-0.003,0l-0,0m0.79,-0.012l-0,-0l-0.006,-0.001l-0.001,0m-0.006,-0.001l0.003,0l0.002,0.001l-0,-0l-0.004,-0.001l-0.001,-0l-0.002,-0.001l-0,-0l0.001,0.001m0.935,-0.794l-0.006,0l-0.003,0l-0.005,0.001l-0.002,-0l-0.004,0l-0.001,0.001l-0.003,0.001l-0,0l-0.004,0.005l-0,0.002l-0.001,0.002l-0,0.003l-0,0.002l-0.001,0.005l0,0.003l-0,0.006l-0,0.004l-0,0.008l-0,0.02l-0,0.021l0,0.013l0.001,0.006l0,0.009l0.001,0.003l-0,0.003l0,0.001l0,0.002l0.001,-0l0.003,0.001l0.003,0.001l0.003,0l0.011,0.002l0.007,-0l0.04,0.003l0.024,0.002l0.011,0.001l0.021,0.003l0.01,0.001l0.019,0.004l0.009,0.002l0.018,0.004l0.009,0.003l0.016,0.005l0.009,0.003l0.016,0.006l0.008,0.004l0.017,0.008l0.008,0.004l0.028,0.015l0.018,0.011l0.008,0.007l0.018,0.013l0.008,0.007l0.017,0.014l0.008,0.007l0.016,0.016l0.008,0.008l0.015,0.017l0.007,0.008l0.014,0.018l0.006,0.009l0.013,0.018l0.006,0.009l0.015,0.027l0.01,0.018l0.004,0.009l0.008,0.017l0.004,0.009l0.007,0.018l0.003,0.009l0.005,0.018l0.003,0.01l0.004,0.019l0.002,0.009l0.004,0.02l0.001,0.011l0.003,0.021l0.001,0.011l0.002,0.021l0.002,0.013l0,0.005l0.002,0.01l0.001,0.003l0,0.003l0.001,0.001l0,0.002l0.001,0l0.001,0.001l0.001,0.001l0.002,0l0.002,0.001l0.007,0.001l0.005,0l0.011,0.001l0.006,0l0.013,0.001l0.006,-0l0.014,-0l0.006,-0l0.012,-0.001l0.006,0l0.01,-0.001l0.003,-0l0.004,-0.001l0.001,-0l0.002,-0.001l0.001,-0l0.003,-0.005l0,-0.002l0.001,-0.002l-0,-0.004l0,-0.002l0,-0.005l0,-0.01l0,-0.004l0,-0.009l-0,-0.005l-0,-0.011l-0.001,-0.006l-0.001,-0.025l-0.001,-0.017l-0.001,-0.008l-0.001,-0.014l-0.001,-0.006l-0.001,-0.006l-0,-0.002l-0.001,-0.005l-0,-0.001l-0.014,-0.053l-0.011,-0.035l-0.007,-0.017l-0.014,-0.034l-0.007,-0.015l-0.008,-0.016l-0.004,-0.007l-0.008,-0.014l-0.004,-0.007l-0.037,-0.053l-0.026,-0.033l-0.014,-0.015l-0.029,-0.03l-0.015,-0.013l-0.032,-0.026l-0.016,-0.012l-0.034,-0.023l-0.018,-0.01l-0.036,-0.02l-0.019,-0.008l-0.038,-0.016l-0.02,-0.006l-0.041,-0.013l-0.021,-0.005l-0.02,-0.003l-0.015,-0.002l-0.009,-0.001l-0.035,-0.003l-0.018,-0.001l-0.017,-0.001l-0.008,-0l-0.015,-0m-0.015,0.25l-0.005,-0l-0.002,0l-0.006,0.001l-0.002,0.001l-0.003,0.003l-0.001,0.001l-0.002,0.007l-0.002,0.008l-0,0.004l-0.001,0.011l-0,0.005l-0.001,0.012l0,0.006l0,0.012l0,0.006l0,0.012l0.001,0.005l0.001,0.009l0,0.003l0.001,0.007l0.001,0.001l0.004,0.004l0.004,0.002l0.003,0.001l0.006,0.001l0.005,0.001l0.01,0.001l0.007,0.001l0.031,0.004l0.011,0.002l0.004,0l0.009,0.002l0.003,0.001l0.03,0.01l0.019,0.008l0.01,0.005l0.018,0.01l0.009,0.006l0.018,0.013l0.008,0.006l0.016,0.015l0.008,0.007l0.015,0.016l0.006,0.009l0.013,0.017l0.006,0.009l0.011,0.018l0.005,0.01l0.004,0.009l0.003,0.007l0.002,0.004l0.005,0.016l0.003,0.009l0.005,0.016l0.001,0.006l0.002,0.007l-0,0.002l0.001,0.005l-0,0.002l0.001,0.008l0.002,0.004l0.002,0.002l0.003,0.002l0.002,0l0.007,0.001l0.005,0l0.005,0.001l0.003,-0l0.006,0l0.004,0l0.007,0l0.005,0l0.008,-0l0.005,-0l0.056,-0.001l0.001,-0.015l0.001,-0.011l-0.001,-0.007l-0,-0.005l-0.003,-0.018l-0.002,-0.01l-0.004,-0.021l-0.003,-0.01l-0.007,-0.021l-0.003,-0.009l-0.019,-0.041l-0.014,-0.027l-0.008,-0.012l-0.016,-0.024l-0.01,-0.011l-0.018,-0.022l-0.011,-0.01l-0.029,-0.027l-0.019,-0.016l-0.01,-0.007l-0.02,-0.014l-0.011,-0.006l-0.021,-0.011l-0.01,-0.005l-0.022,-0.009l-0.011,-0.004l-0.023,-0.007l-0.012,-0.002l-0.024,-0.005l-0.013,-0.002l-0.025,-0.002l-0.013,-0.001l-0.015,-0.001l-0.008,-0l-0.003,-0l-0.006,-0m-0.273,-0.13l-0.004,0.002l-0.003,0.001l-0.005,0.003l-0.003,0.002l-0.019,0.012l-0.013,0.009l-0.006,0.004l-0.025,0.021l-0.013,0.011l-0.026,0.024l-0.012,0.014l-0.025,0.027l-0.012,0.015l-0.013,0.017l-0.008,0.013l-0.005,0.007l-0.018,0.029l-0.008,0.016l-0.008,0.015l-0.004,0.008l-0.007,0.015l-0.003,0.008l-0.007,0.014l-0.002,0.007l-0.005,0.013l-0.002,0.005l-0.007,0.029l-0.004,0.017l-0.002,0.008l-0.001,0.007l-0.001,0.003l-0,0.006l-0.001,0.003l-0,0.005l0,0.002l0,0.003l0.001,0.001l0.001,0.002l0.002,0.001l0.002,0l0.002,0.001l0.003,0l0.002,0l0.005,0.001l0.003,-0l0.006,0l0.012,0l0.004,-0l0.01,-0l0.006,-0l0.056,-0.002l0.014,-0.038l0.007,-0.02l0.005,-0.012l0.002,-0.006l0.009,-0.022l0.005,-0.009l0.01,-0.019l0.006,-0.008l0.011,-0.018l0.007,-0.009l0.029,-0.034l0.022,-0.023l0.012,-0.01l0.022,-0.02l0.011,-0.009l0.011,-0.008l0.006,-0.004l0.01,-0.007l0.005,-0.003l0.015,-0.01l0.004,-0.003l0.001,-0.001l0.002,-0.003l0,-0.001l0,-0.004l-0.001,-0.004l-0.001,-0.003l-0.002,-0.005l-0.002,-0.003l-0.003,-0.006l-0.002,-0.003l-0.008,-0.015l-0.005,-0.008l-0.003,-0.004l-0.004,-0.008l-0.002,-0.003l-0.004,-0.006l-0.002,-0.003l-0.007,-0.01l-0.002,-0.004l-0.006,-0.006l-0.002,-0.002l-0.004,-0.004l-0.002,-0l-0.005,-0.001m0.517,0.123l-0.001,0.001l-0.002,0.002l-0.002,0.001l-0.003,0.008l0,0.005l0.002,0.002l0.002,0.003l0.001,0.002l0.003,0.003l0.002,0.002l0.005,0.003l0.002,0.002l0.006,0.005l0.004,0.002l0.024,0.02l0.015,0.013l0.007,0.007l0.014,0.014l0.007,0.008l0.014,0.015l0.007,0.009l0.006,0.007l0.003,0.003l0.006,0.006l0.002,0.002l0.005,0.005l0.002,0.001l0.004,0.003l0.001,0l0.004,0.002l0.001,-0l0.002,-0.001l0.001,-0.001l0.002,-0.002l-0,-0.002l0.001,-0.003l-0,-0.003l-0.002,-0.006l-0.002,-0.006l-0.002,-0.004l-0.004,-0.007l-0.003,-0.004l-0.005,-0.008l-0.003,-0.004l-0.013,-0.017l-0.007,-0.008l-0.008,-0.008l-0.003,-0.003l-0.007,-0.007l-0.004,-0.003l-0.018,-0.016l-0.006,-0.005l-0.002,-0.002l-0.005,-0.004l-0.002,-0.002l-0.006,-0.005l-0.006,-0.004l-0.002,-0.002l-0.012,-0.008l-0.005,-0.003l-0.011,-0.006l-0.005,-0.002l-0.001,-0m-2.355,0.824l0.001,-0.013l-0,-0.006l-0,-0.01l-0,-0.004l0,-0.003l0,-0.001l0,-0.002l0,0l0.003,-0.002l0.002,-0.001l0.002,-0l0.003,-0.001l0.002,-0l0.004,-0l0.003,-0.001l0.006,0l0.003,0l0.008,-0l0.004,-0l0.008,-0l0.058,-0l0,-0.111l0.111,0l-0,-0.079l0.013,-0.012l-0.003,0.003l-0.002,0.002l-0.002,0.006l-0,0.002l-0.001,0.004l-0,0.002l-0.001,0.006l-0,0.003l-0,0.008l-0.001,0.014l-0.001,0.043l-0.108,0.003l-0,0.106l1.393,-0l-0,-0.106l-0.514,-0l-0.02,-0l-0.036,-0l-0.018,-0l-0.034,-0.001l-0.016,0l-0.03,0l-0.015,0l-0.027,0l-0.013,0l-0.024,-0l-0.012,-0l-0.021,-0l-0.01,-0l-0.018,-0.001l-0.009,0l-0.016,0l-0.007,0l-0.013,-0l-0.006,-0l-0.011,-0.001l-0.005,0l-0.009,-0l-0.004,-0l-0.006,-0.001l-0.003,0l-0.005,-0l-0.002,-0l-0.002,-0.001l-0.002,-0.001l-0.002,-0.001l-0.002,-0.005l-0.001,-0.007l-0,-0.003l-0.002,-0.004l0.01,0.021l0.454,0l0.03,0l0.015,0l0.028,0l0.013,0l0.027,0l0.012,0l0.025,-0l0.012,-0l0.022,-0l0.011,-0l0.021,-0l0.01,-0l0.019,-0.001l0.009,0l0.017,0l0.007,-0l0.015,-0l0.007,-0l0.013,-0.001l0.005,0l0.011,0l0.005,0l0.008,-0l0.004,-0l0.006,-0.001l0.003,0l0.004,-0l0.001,-0l0.002,-0.001l-0,0l-0.001,-0.003l-0,-0.002l-0.001,-0.001l-0.001,-0.003l-0.001,-0.002l-0.001,-0.005l-0.001,-0.003l-0.003,-0.006l-0.002,-0.004l-0.003,-0.009l-0.002,-0.005l-0.005,-0.012l-0.003,-0.006l-0.006,-0.016l-0.005,-0.009l-0.001,-0.004l-0.004,-0.007l-0.001,-0.003l-0.002,-0.004l-0.001,-0.001l-0.002,-0.001l-0.003,-0.001l-0.002,-0.001l-0.004,-0l-0.003,-0l-0.006,-0.001l-0.004,-0l-0.008,-0.001l-0.005,0l-0.011,0l-0.006,-0l-0.013,-0l-0.007,-0l-0.016,-0l-0.008,-0l-0.013,-0l0,-0l0.018,-0.001l0.017,-0l0.036,-0.002l0.041,-0.003l-0.001,-0.049l-0.001,-0.049l-0.094,-0.002l-0.01,0l-0.018,0l-0.008,0l-0.02,0l-0.01,0l-0.005,0l-0.008,0.001l-0.003,-0l-0.006,0l-0.003,0.001l-0.003,0.001l-0.002,0l-0.002,0.001l-0.003,0.002l-0.001,0.001l-0.002,0.005l-0.001,0.003l-0.001,0.008l-0.001,0.005l-0,0.01l-0.001,0.005l0,0.001l0,-0.004l0,-0.009l0.001,-0.005l0,-0.007l0.001,-0.003l0.001,-0.005l0.001,-0.001l0.003,-0.004l0.003,-0.003l0.002,-0.001l0.004,-0.002l0.003,-0l0.006,-0.002l0.004,-0l0.008,-0.001l0.005,-0l0.012,-0.001l0.006,-0l0.015,-0.001l0.008,0l0.018,0l0.097,0l-0.002,-0.088l-0,-0.034l0,-0.022l0,-0.01l0.001,-0.019l0.001,-0.009l0.001,-0.018l0.001,-0.009l0.004,-0.035l0.003,-0.017l0.004,-0.018l0.002,-0.009l0.004,-0.018l0.002,-0.01l0.013,-0.044l0.009,-0.028l0.006,-0.014l0.012,-0.029l0.006,-0.013l0.013,-0.028l0.008,-0.013l0.015,-0.026l0.008,-0.013l0.017,-0.026l0.008,-0.012l0.018,-0.024l0.01,-0.011l0.02,-0.023l0.01,-0.011l0.026,-0.026l0.017,-0.016l0.009,-0.008l0.017,-0.015l0.009,-0.007l0.017,-0.014l0.009,-0.007l0.019,-0.013l0.009,-0.006l0.019,-0.012l0.01,-0.006l0.021,-0.012l0.01,-0.006l0.022,-0.011l0.011,-0.006l0.042,-0.019l0.027,-0.012l0.013,-0.005l0.027,-0.009l0.014,-0.004l0.027,-0.008l0.013,-0.003l0.028,-0.006l0.014,-0.002l0.028,-0.005l0.014,-0.001l0.03,-0.003l0.015,-0l0.031,-0.002l0.016,0l0.027,0.001l0.017,0l0.008,0l0.031,0.002l0.014,0.002l0.03,0.004l0.016,0.003l0.016,0.004l0.009,0.002l0.017,0.004l0.01,0.002l0.022,0.005l0.013,0.004l0.006,0.002l0.023,0.007l0.011,0.004l0.011,0.004l0.006,0.002l0.012,0.005l0.006,0.003l0.014,0.006l0.007,0.004l0.015,0.007l0.009,0.004l0.017,0.009l0.013,0.007l0.007,0.004l0.028,0.016l0.015,0.009l0.014,0.009l0.007,0.005l0.013,0.008l0.006,0.004l0.012,0.008l0.004,0.004l0.01,0.007l0.003,0.002l0.023,0.021l0.016,0.015l0.007,0.007l0.006,0.007l0.003,0.003l0.006,0.006l0.002,0.003l0.003,0.004l0.001,0.002l0.002,0.003l-0,0l-0.002,0.001l-0.002,0.001l-0.002,0l-0.003,0.001l-0.002,0l-0.005,0.001l-0.003,0l-0.007,0.001l-0.004,-0l-0.007,0l-0.005,0.001l-0.009,0l-0.005,0l-0.01,0.001l-0.006,-0l-0.02,0.001l-0.011,0l-0.005,0l-0.009,0.001l-0.003,-0l-0.007,0.001l-0.002,-0l-0.005,0.001l-0.001,-0l-0.003,0.001l-0.001,0l-0.002,0.002l-0,0.002l0.001,0.002l0.001,0.002l0.001,0.002l0.003,0.003l0.001,0.002l0.003,0.005l0.002,0.002l0.009,0.01l0.005,0.006l0.011,0.012l0.006,0.006l0.032,0.035l0.02,0.025l0.009,0.013l0.018,0.025l0.007,0.012l0.008,0.012l0.003,0.006l0.006,0.011l0.003,0.006l0.009,0.016l0.003,0.004l0.001,0.001l0.002,0.003l0.001,0l0.002,0.001l0.003,0l0.001,0l0.004,0.001l0.003,0l0.005,0l0.003,0l0.013,0.001l0.007,0l0.016,0l0.008,0l0.023,0l0.012,0.001l0.005,-0l0.009,0.001l0.004,0.001l0.006,0.002l0.003,0.001l0.004,0.004l0.002,0.002l0.004,0.006l0.001,0.004l0.004,0.008l0.001,0.005l0.004,0.011l0.002,0.007l0.016,0.06l0.007,0.042l0.003,0.021l0.004,0.044l0.001,0.022l0.001,0.044l-0.001,0.022l-0.003,0.045l-0.003,0.022l-0.007,0.045l-0.004,0.022l-0.01,0.044l-0.006,0.021l-0.014,0.042l-0.007,0.021l-0.008,0.018l-0.006,0.014l-0.004,0.008l-0.015,0.031l-0.008,0.016l-0.008,0.015l-0.004,0.008l-0.007,0.015l-0.004,0.006l-0.007,0.013l-0.003,0.005l-0.006,0.01l-0.002,0.003l-0.008,0.011l-0.006,0.008l-0.003,0.005l-0.014,0.018l-0.006,0.009l-0.007,0.009l-0.003,0.003l-0.006,0.008l-0.002,0.003l-0.005,0.005l-0.001,0.002l-0.003,0.003l-0.001,0.001l-0.002,0.002l-0.001,0.001l0.001,0.001l0.001,0.001l0.001,0.001l0.002,0.001l0.002,0l0.004,0.001l0.002,0l0.006,0.001l0.003,0l0.007,0.001l0.005,0l0.008,0.001l0.005,-0l0.019,0.001l-0.027,-0l-0.008,-0l-0.004,-0l-0.007,0l-0.003,0l-0.005,0l-0.002,0.001l-0.005,0l-0.004,0.001l-0.005,0.001l-0.005,0.003l-0.001,0.001l-0.001,0.002l-0.001,0.001l-0.001,0.004l-0,0.002l-0.001,0.005l-0,0.003l-0.001,0.007l-0,0.004l-0,0.011l-0.001,0.005l0,0.014l0,0.007l0,0.018l0,0.005l-0,0.01l-0,0.124l0.104,-0.002l0.003,-0.108l-0,-0.015l0.001,-0.028l-0,-0.006l0,-0.012l0,-0.006l0.001,-0.011l-0,-0.002l-0.001,0.011l0,0.006l-0,0.012l-0,0.007l-0.001,0.028l-0,0.016l-0.003,0.112l-0.106,0l-0.004,-0.212l-0.027,0.032l-0.03,0.038l-0.019,0.027l-0.009,0.015l-0.018,0.029l-0.009,0.016l-0.017,0.031l-0.008,0.017l-0.015,0.033l-0.007,0.017l-0.014,0.035l-0.006,0.018l-0.012,0.036l-0.006,0.018l-0.011,0.038l-0.004,0.019l-0.004,0.014l-0.001,0.008l-0.001,0.003l-0.001,0.005l0,0.002l0.001,0.004l0.001,0.001l0.002,0.002l0.002,0.001l0.004,0.001l0.003,0l0.006,0.001l0.018,-0l0.015,0l0.008,0.001l0.004,0l0.008,0.001l0.003,0.001l0.006,0.002l0.003,0.001l0.005,0.002l0.003,0.002l0.004,0.003l0.002,0.002l0,0l-0.001,-0l-0.004,-0.002l-0.002,-0.001l-0.005,-0.001l-0.003,-0l-0.008,-0.001l-0.004,-0.001l-0.01,-0.001l-0.006,-0l-0.013,-0.001l-0.007,-0l-0.016,-0.001l-0.009,0l-0.021,-0l-0.01,-0l-0.025,-0.001l-0.006,0l-0.014,0l-0.007,0l-0.015,-0l-0.008,-0l-0.016,-0l-0.009,-0l-0.017,-0l-0.009,-0l-0.019,-0.001l-0.01,0l-0.02,0l-0.011,0l-0.021,0l-0.035,-0l-0.351,-0.002l-0.001,-0.114l-0.001,-0.113l-0.102,-0l0.002,0.329l0.13,0.002l0.004,0l0.011,0l0.005,0.001l0.012,-0l0.006,-0l0.013,-0l0.007,0l0.014,0l0.014,0l0.031,0l0.017,0l0.034,0.001l0.017,-0l0.093,-0l0.038,-0l0.075,-0.001l0.019,0l0.036,-0l0.018,-0l0.034,-0l0.017,-0.001l0.031,0l0.015,0l0.027,-0l0.007,-0l0.012,-0.001l0.006,0l0.011,0l0.005,0l0.01,-0l0.004,-0l0.008,-0l0.004,-0.001l0.006,0l0.004,0l0.004,-0l0.003,-0l0.002,-0l0.002,-0.001l0.001,0l0.002,-0.001l0.004,-0.002l-0.004,0.003l-0.003,0.001l-0.002,0.001l-0.003,0l-0.002,0.001l-0.008,0.001l-0.005,0l-0.011,0.001l-0.007,0.001l-0.013,0.001l-0.007,-0l-0.051,0.002l-0.005,0.034l-0.002,0.016l-0.001,0.008l0,0.003l0.001,0.005l-0,0.002l0.001,0.003l0.001,0l0.005,0.001l0.006,0.001l0.004,0l0.009,0.001l0.005,0l0.011,0l0.006,0l0.017,0.001l0.01,0l0.005,0l0.01,0.001l0.003,0l0.007,0.001l0.002,0l0.009,0.003l0.006,0.003l0.003,0.002l0.004,0.004l-0.005,-0.004l-0.002,-0.002l-0.006,-0.003l-0.01,-0.003l-0,0l-0.003,0l-0.001,-0l-0.004,-0l-0.003,-0l-0.005,-0l-0.003,-0.001l-0.007,0l-0.004,0l-0.008,0l-0.004,0l-0.01,-0l-0.009,-0l-0.023,-0l-0.012,-0l-0.027,-0.001l-0.013,0l-0.03,0l-0.015,0l-0.033,0l-0.05,0l-0.034,0l-0.071,0l-0.035,0.001l-0.069,0l-0.016,0l-0.033,0l-0.015,0.001l-0.03,-0l-0.015,0l-0.026,0l-0.036,0.001l-0.147,0.003l0.002,0.132l-0,0.009l0,0.017l0,0.009l0.001,0.016l-0,0.008l-0,0.015l0,0.007l0,0.012l0.001,0.007l-0,0.01l0,0.005l0,0.008l0.001,0.003l-0,0.005l-0,0.002l-0,-0l-0,-0.001l-0.001,-0.004l0,-0.005l-0,-0.003l-0,-0.008l-0.001,-0.005l0,-0.011l-0,-0.006l-0,-0.013l-0.001,-0.008l0,-0.015l-0,-0.008l-0,-0.016l-0,-0.009l-0.001,-0.018l0,-0.009l-0.002,-0.132l0.122,-0.001l0.121,-0.002l0,-0.072l-0.122,-0.001l-0.032,-0l-0.018,-0.001l-0.008,0l-0.015,-0l-0.006,-0l-0.012,-0.001l-0.005,0l-0.009,-0l-0.003,-0.001l-0.006,-0l-0.002,-0.001l-0.004,-0.001l-0.001,0l-0.001,-0.001l-0,-0l-0,-0.002l-0,-0.018l-0,-0.012l-0,-0.007l0,-0.014l0,-0.008l0,-0.013l0,-0.011l0,-0.005l-0,-0.013l-0,-0.007l-0,-0.013l-0,-0.008l-0.001,-0.029l-0,-0.016l-0.001,-0.031l-0,-0.014l-0.003,-0.105l-0.052,-0.001l-0.051,-0.001l-0.004,-0.241l-0.031,0l0.01,-0l0.005,-0.001l0.007,-0.001l0.001,0l0.002,-0l0.001,-0l0.002,-0.001l0.001,-0.001l0.001,-0.003l0.001,-0.003l0,-0.007l0.001,-0.002l-0,-0.006l-0,-0.003l0,-0.006l0,-0.004l0,-0.007l-0,-0.014l-0.001,-0.053l-0.111,0l-0.001,0.051l-0,0.008l-0,0.014l-0,0.006l0,0.011l0.001,0.004l0.001,0.007l0.001,0.003l-0.001,-0.001l-0.001,-0.005l-0.001,-0.004l-0,-0.009l-0.001,-0.006l0,-0.006l0,-0.004l0,-0.007l0,-0.005l-0,-0.018l-0,-0.011l-0.001,-0.005l-0,-0.009l-0.001,-0.003l0,-0.003l-0,-0.001l-0,-0.002l-0.001,-0l-0.001,-0.001l-0.002,-0.001l-0.001,-0l-0.004,-0.001l-0.003,-0l-0.006,-0.001l-0.004,0l-0.009,-0l-0.006,-0.001l-0.012,0l-0.008,-0l-0.016,-0l-0.009,-0.001l-0.01,0l-0.006,0l-0.011,0l-0.006,0l-0.012,-0l-0.006,-0l-0.014,-0l-0.007,-0l-0.015,-0l-0.008,-0l-0.016,-0l-0.009,-0l-0.018,-0.001l-0.009,0l-0.02,0l-0.01,0l-0.021,0l-0.011,0l-0.022,0l-0.012,0l-0.025,0l-0.012,0l-0.026,0l-0.014,0l-0.042,0l-0.03,0l-0.047,0l-0.017,0l-0.862,0l0,-0l-0.104,0.002l-0.004,0.115l0.001,-0.055" style="fill:#e9a842;fill-rule:nonzero;"/></g></svg>